<?xml version="1.0" encoding="UTF-8" standalone="no"?>
<!-- Created with Inkscape (http://www.inkscape.org/) -->

<svg
   xmlns:dc="http://purl.org/dc/elements/1.1/"
   xmlns:cc="http://creativecommons.org/ns#"
   xmlns:rdf="http://www.w3.org/1999/02/22-rdf-syntax-ns#"
   xmlns:svg="http://www.w3.org/2000/svg"
   xmlns="http://www.w3.org/2000/svg"
   xmlns:sodipodi="http://sodipodi.sourceforge.net/DTD/sodipodi-0.dtd"
   xmlns:inkscape="http://www.inkscape.org/namespaces/inkscape"
   width="500"
   height="500"
   viewBox="0 0 499.99999 500"
   id="svg2"
   version="1.1"
   inkscape:version="0.91 r13725"
   sodipodi:docname="missional.svg">
  <defs
     id="defs4">
    <mask
       maskUnits="userSpaceOnUse"
       id="mask5652">
      <path
         sodipodi:type="star"
         style="opacity:1;fill:#e54229;fill-opacity:0.61538463;stroke:#240000;stroke-opacity:1"
         id="path5654"
         sodipodi:sides="5"
         sodipodi:cx="340.16885"
         sodipodi:cy="620.01691"
         sodipodi:r1="26.500866"
         sodipodi:r2="8.143425"
         sodipodi:arg1="1.4369853"
         sodipodi:arg2="2.0653039"
         inkscape:flatsided="false"
         inkscape:rounded="0.610366"
         inkscape:randomized="0"
         d="m 343.70439,646.28087 c -12.3885,1.66768 3.60235,-13.16351 -7.40039,-19.0961 -11.00275,-5.93259 -14.6068,15.57746 -20.02112,4.31064 -5.41432,-11.26682 13.63243,-0.6417 15.87462,-12.93921 2.2422,-12.2975 -19.32879,-9.07819 -10.28653,-17.70915 9.04227,-8.63096 4.82295,12.76691 17.21145,11.09923 12.3885,-1.66768 2.66095,-21.1881 13.6637,-15.2555 11.00274,5.93259 -10.65169,8.53209 -5.23737,19.79891 5.41432,11.26682 20.97336,-4.01677 18.73116,8.28073 -2.2422,12.29751 -11.40605,-7.49379 -20.44832,1.13717 -9.04227,8.63097 10.3013,18.7056 -2.0872,20.37328 z"
         inkscape:transform-center-x="-0.71998816"
         inkscape:transform-center-y="0.97463929" />
    </mask>
  </defs>
  <sodipodi:namedview
     id="base"
     pagecolor="#ffffff"
     bordercolor="#666666"
     borderopacity="1.0"
     inkscape:pageopacity="0.0"
     inkscape:pageshadow="2"
     inkscape:zoom="1.979899"
     inkscape:cx="200.15467"
     inkscape:cy="228.5709"
     inkscape:document-units="px"
     inkscape:current-layer="layer1"
     showgrid="false"
     fit-margin-top="0"
     fit-margin-left="0"
     fit-margin-right="0"
     fit-margin-bottom="0"
     inkscape:window-width="2560"
     inkscape:window-height="1417"
     inkscape:window-x="-8"
     inkscape:window-y="-8"
     inkscape:window-maximized="1"
     units="px" />
  <metadata
     id="metadata7">
    <rdf:RDF>
      <cc:Work
         rdf:about="">
        <dc:format>image/svg+xml</dc:format>
        <dc:type
           rdf:resource="http://purl.org/dc/dcmitype/StillImage" />
        <dc:title />
      </cc:Work>
    </rdf:RDF>
  </metadata>
  <g
     inkscape:label="Layer 1"
     inkscape:groupmode="layer"
     id="layer1"
     transform="translate(-124.75384,-338.71493)">
    <path
       style="opacity:0;fill:#b7a400;fill-opacity:1;stroke:#9a0000;stroke-opacity:1"
       id="path5618"
       d="m 118.84387,916.19739 c 4.27565,-8.22353 8.49189,-16.49196 12.46313,-24.86811 2.94036,-6.86411 6.27075,-13.44978 10.48746,-19.61556 6.90848,-8.15258 15.26589,-14.98097 24.1532,-20.86221 12.98126,7.84279 31.12841,-27.24 49.49244,-23.93494 2.22443,0.40034 3.06039,1.18752 4.92738,2.36784 5.8752,4.47493 10.22141,10.48099 14.85191,16.14689 7.88076,9.51738 17.14238,17.73153 26.36176,25.91457 8.23411,6.27848 16.32893,12.77608 26.27952,16.01119 5.19986,1.36046 10.19719,3.02089 15.56743,3.62237 5.34111,0.43714 10.70622,0.40916 16.06106,0.41643 5.40736,0.63742 10.37268,-0.60982 15.58463,-1.68894 2.20162,-0.27145 4.60751,-1.00421 6.55849,-2.10706 0.60622,-0.34269 2.23435,-1.65184 1.62821,-1.309 -11.61853,6.57156 -23.12537,13.33865 -34.68805,20.00798 0,0 39.29672,-16.11194 39.29672,-16.11194 l 0,0 c -17.86025,10.79882 -28.41,21.86952 -46.58487,25.12341 -5.31191,1.06626 -10.63639,1.10185 -16.04549,0.94399 -5.49215,-0.0468 -11.00984,-0.0709 -16.45559,-0.87175 -5.44418,-0.98711 -10.64427,-2.78977 -15.90182,-4.48531 -9.90441,-4.20512 -18.13311,-11.05252 -26.55186,-17.63766 -9.47767,-8.2621 -18.85062,-16.68615 -27.08576,-26.21667 -4.40113,-5.13076 -8.48127,-10.84383 -14.31639,-14.45255 -3.0249,-0.99505 -5.79427,-0.60759 -8.78454,0.52227 -1.13412,0.42853 -4.37109,2.08287 -3.33203,1.4582 10.67988,-6.42058 21.51852,-12.5733 32.27778,-18.85995 -9.14723,5.17063 -17.25675,11.91839 -24.67045,19.34623 -4.63138,5.6717 -7.83078,12.14767 -10.81783,18.80336 -3.78188,8.40511 -8.50802,16.34942 -12.10788,24.8511 0,0 -38.64856,17.48582 -38.64856,17.48582 z"
       inkscape:connector-curvature="0" />
    <path
       style="opacity:0;fill:#b7a400;fill-opacity:1;stroke:#9a0000;stroke-opacity:1"
       id="path5620"
       d="m 306.17034,913.395 c -8.20283,-0.15732 -16.40873,-0.11236 -24.6128,-0.10046 -8.08203,-0.18462 -16.21022,0.49212 -24.24714,-0.47572 -9.71578,-0.9754 -18.94986,-4.40707 -28.23801,-7.21682 -7.60012,-1.6945 -14.67077,-4.60083 -21.06081,-9.01991 -6.93288,-4.87298 -11.97743,-11.67239 -17.03947,-18.34177 -5.95157,-7.27451 -10.98922,-15.16808 -15.88856,-23.16348 -4.64878,-7.16369 -8.33705,-14.85291 -12.8305,-22.11358 -4.53372,-8.37266 -10.77568,-15.02484 -17.716,-21.41885 -6.83099,-6.22168 -14.5253,-11.05732 -22.66975,-15.32933 -5.1507,-2.54775 -10.3774,-4.37041 -16.06314,-5.19686 -5.55625,-0.74282 -10.261823,-0.76205 -15.671909,0.60195 -4.654693,0.90719 -9.392187,1.09944 -13.301302,4.01773 -12.167509,6.77188 -25.238467,14.05769 32.497631,-18.71175 0.90837,-0.51557 -1.78084,1.0982 -2.61285,1.72963 -3.65996,2.77764 -6.47036,6.31491 -9.407233,9.80678 -7.526775,9.21143 -13.878784,19.30413 -19.058276,29.99869 -3.163712,6.62458 -4.542649,13.72665 -5.081229,20.98517 -0.274121,5.70736 -0.164534,11.42422 -0.116945,17.13551 0.03373,3.79492 0.05114,7.58995 0.06541,11.38498 l -37.695646,19.22316 0,0 c -0.01171,-3.78861 -0.02577,-7.57723 -0.05755,-11.36574 -0.04824,-5.80763 -0.155104,-11.61789 0.02036,-17.4243 0.407413,-7.77115 1.573158,-15.43887 4.791814,-22.60814 5.042666,-10.96485 11.324264,-21.31268 18.627277,-30.92851 14.986271,-18.84261 21.729403,-23.01633 51.159758,-35.76448 4.57654,-1.45517 9.28017,-2.13684 13.99053,-3.0423 5.49893,-0.73997 11.08327,-0.17344 16.5392,0.71362 5.88689,1.30477 11.43152,3.51393 16.73347,6.39648 8.12876,4.75522 15.86174,9.9677 22.77213,16.42027 7.30464,6.58882 13.91086,13.51817 18.66149,22.23076 4.42528,7.30321 8.11447,14.98656 12.73408,22.17238 47.78125,1.23964 29.20275,37.41336 32.15278,39.8163 6.20979,3.89143 13.08183,6.31765 20.15701,8.17735 9.1126,2.83846 18.28718,5.85124 27.89281,6.38116 7.98719,0.42677 15.99166,0.0889 23.98722,0.20781 8.29629,0.0121 16.59424,0.0547 24.88935,-0.10047 z"
       inkscape:connector-curvature="0"
       sodipodi:nodetypes="cccccccccccccsscccccccccccccccccccccccc" />
    <g
       id="g4174"
       transform="matrix(1.1992059,0,0,1.2496339,-50.098765,-112.8372)">
      <path
         transform="matrix(-0.65148837,1.0821221,-0.72819013,-0.96813997,1052.2123,624.14867)"
         inkscape:transform-center-y="-3.9612949"
         inkscape:transform-center-x="-20.728774"
         d="m 370.35713,438.96933 -31.85737,28.45512 -8.71417,-41.81684 -8.71417,-41.81685 40.57153,13.36173 40.57154,13.36173 z"
         inkscape:randomized="0"
         inkscape:rounded="0"
         inkscape:flatsided="false"
         sodipodi:arg2="1.8889463"
         sodipodi:arg1="0.8417487"
         sodipodi:r2="49.323227"
         sodipodi:r1="24.661613"
         sodipodi:cy="420.57648"
         sodipodi:cx="353.92856"
         sodipodi:sides="3"
         id="path5656"
         style="opacity:1;fill:#000000;fill-opacity:1;stroke:none;stroke-opacity:1"
         sodipodi:type="star" />
      <rect
         y="563.1377"
         x="433.32352"
         height="72.599648"
         width="74.027107"
         id="rect5658"
         style="opacity:1;fill:#000000;fill-opacity:1;stroke:none;stroke-opacity:1" />
    </g>
    <g
       id="g5943"
       transform="matrix(5.1117101,0,0,4.8587423,-519.14406,-3331.5186)">
      <rect
         y="804.59521"
         x="135.90546"
         height="34"
         width="34"
         id="rect5809"
         style="opacity:1;fill:#000000;fill-opacity:1;stroke:none;stroke-opacity:1" />
      <path
         transform="matrix(1.0162583,0.00140151,-9.7742298e-4,0.60763697,7.7572138,319.6824)"
         inkscape:transform-center-y="-4.6597847"
         inkscape:transform-center-x="-0.021970907"
         d="m 170.16815,805.18675 -26.56799,0.063 -26.56799,0.063 13.22945,-23.04005 13.22945,-23.04005 13.33854,22.97706 z"
         inkscape:randomized="0"
         inkscape:rounded="0"
         inkscape:flatsided="false"
         sodipodi:arg2="1.5684256"
         sodipodi:arg1="0.521228"
         sodipodi:r2="15.339079"
         sodipodi:r1="30.678158"
         sodipodi:cy="789.91071"
         sodipodi:cx="143.5638"
         sodipodi:sides="3"
         id="path5826"
         style="opacity:1;fill:#000000;fill-opacity:1;stroke:none;stroke-opacity:1"
         sodipodi:type="star" />
      <g
         transform="translate(11.815717,33.392857)"
         id="g5891">
        <rect
           style="opacity:1;fill:#000000;fill-opacity:1;stroke:none;stroke-opacity:1"
           id="rect5658-6-4"
           width="10.968249"
           height="1.9594059"
           x="740.77161"
           y="-139.21841"
           transform="matrix(0.00372463,0.99999306,-0.99986807,0.01624297,0,0)" />
        <rect
           style="opacity:1;fill:#000000;fill-opacity:1;stroke:none;stroke-opacity:1"
           id="rect5658-6-0-7"
           width="7.9901347"
           height="1.9967096"
           x="-141.32744"
           y="-743.28076"
           transform="matrix(-0.99999991,4.1485564e-4,-0.00494103,-0.99998779,0,0)" />
      </g>
    </g>
  </g>
</svg>
